<svg width="40" height="40" viewBox="0 0 40 40" fill="none" xmlns="http://www.w3.org/2000/svg">
<path d="M11.6634 0C5.23175 0 0 5.23658 0 11.6699V28.3366C0 34.7682 5.23658 40 11.6699 40H28.3366C34.7682 40 40 34.7634 40 28.3301V11.6634C40 5.23175 34.7634 0 28.3301 0H11.6634ZM31.6667 6.66666C32.5867 6.66666 33.3333 7.41333 33.3333 8.33333C33.3333 9.25333 32.5867 10 31.6667 10C30.7467 10 30 9.25333 30 8.33333C30 7.41333 30.7467 6.66666 31.6667 6.66666ZM20 10C25.515 10 30 14.485 30 20C30 25.515 25.515 30 20 30C14.485 30 10 25.515 10 20C10 14.485 14.485 10 20 10ZM20 13.3333C16.3181 13.3333 13.3333 16.3181 13.3333 20C13.3333 23.6819 16.3181 26.6667 20 26.6667C23.6819 26.6667 26.6667 23.6819 26.6667 20C26.6667 16.3181 23.6819 13.3333 20 13.3333Z" fill="#DFAF47"/>
</svg>
